<?xml version="1.0" encoding="UTF-8"?><svg id="a" xmlns="http://www.w3.org/2000/svg" viewBox="0 0 130.51512 98.06995"><defs><style>.b{fill:#fff;}.c{fill:#009fe3;}.d{fill:#b17f4a;}</style></defs><path class="c" d="M83.22003,41.60999c0,3.08997-.34003,6.09998-.97998,9-1.85004,8.41998-6.26001,15.88-12.37,21.52997-7.42004,6.88-17.35004,11.08002-28.26001,11.08002C18.63,83.21997,0,64.58997,0,41.60999S18.63,0,41.61005,0s41.60999,18.62994,41.60999,41.60999Z"/><path class="d" d="M128.85004,91.84998c-2.29999,3.98999-6.47998,6.21997-10.77002,6.21997-2.10999,0-4.23999-.53998-6.19-1.66998l-42.01996-24.26001c6.10999-5.64996,10.51996-13.10999,12.37-21.52997l42.06,24.27997c5.94,3.42999,7.97998,11.03003,4.54999,16.96002Z"/><path class="b" d="M41.61002,20.08424c-5.25,.53998-9.85999,3.17999-13.01001,7.06l-5.76996-4.58002c4.25-5.27997,10.47998-8.90997,17.56-9.75l1.21997,7.27002Z"/></svg>